<svg width="287" height="85" viewBox="0 0 287 85" fill="none" xmlns="http://www.w3.org/2000/svg">
  <path d="M244.082 53.1728C243.015 50.7298 241.413 48.7575 239.279 47.2552C237.144 45.7544 234.577 45.0027 231.578 45.0027C228.477 45.0027 225.681 45.8556 223.191 47.5606C220.7 49.2668 218.731 51.6342 217.282 54.6621C215.833 57.6911 215.109 61.1401 215.109 65.0083C215.109 65.9927 215.178 66.9536 215.311 67.8937C214.214 69.0102 213.204 69.9365 212.289 70.6583C210.612 71.983 208.679 72.6439 206.495 72.6439C203.8 72.6439 201.83 71.575 200.585 69.437C199.339 67.299 198.718 63.5839 198.718 58.289C198.718 56.8646 198.768 54.8793 198.87 52.3333H208.172C213.915 52.3333 216.788 50.5771 216.788 47.0647C216.788 46.0984 216.609 45.4364 216.254 45.0794C215.898 44.724 215.313 44.5449 214.5 44.5449H205.961C212.568 38.6918 215.873 31.8198 215.873 23.9292C215.873 21.0788 215.263 18.7118 214.043 16.8277C212.823 14.9451 211.146 14.0026 209.011 14.0026C206.113 14.0026 203.407 15.377 200.891 18.1258C198.375 20.8746 196.227 24.566 194.448 29.1974C192.668 33.8299 191.347 38.9458 190.483 44.5446H186.137C183.85 44.5446 182.706 45.9705 182.706 48.8205C182.706 50.0426 182.973 50.9336 183.507 51.493C184.041 52.0541 185.07 52.3329 186.595 52.3329H189.569C189.416 54.6236 189.34 56.889 189.34 59.1286C189.34 60.7709 189.409 62.3157 189.54 63.7733C189.087 63.9376 188.664 64.2462 188.274 64.7026C185.935 67.5025 184.067 69.526 182.67 70.7729C181.271 72.0208 180.064 72.6436 179.048 72.6436C177.573 72.6436 176.837 71.6257 176.837 69.5893C176.837 68.1649 177.32 65.2371 178.286 60.8084C179.403 55.6162 179.963 52.0275 179.963 50.0422C179.963 46.7337 178.311 45.0791 175.007 45.0791C173.33 45.0791 171.487 45.6647 169.48 46.8353C167.471 48.0069 165.426 49.9659 163.342 52.7147C161.257 55.4635 159.377 59.027 157.7 63.4045C157.902 61.165 158.157 59.2813 158.462 57.7542C158.767 56.227 159.174 54.4456 159.682 52.4089C160.445 49.5589 160.826 47.7263 160.826 46.9113C160.826 46.1988 160.622 45.7159 160.216 45.4605C159.809 45.2066 159.098 45.0787 158.081 45.0787C156.2 45.0787 154.738 45.4223 153.697 46.1095C152.655 46.7964 151.905 47.8787 151.448 49.3547C150.564 52.1543 149.89 55.028 149.421 57.9742C147.153 58.4774 145.134 58.7861 143.367 58.8991C142.959 54.9798 141.575 51.6835 139.211 49.011C136.848 46.3386 133.733 45.0024 129.871 45.0024C126.718 45.0024 123.847 45.8552 121.255 47.5603C118.663 49.2664 116.629 51.6338 115.155 54.6618C113.68 57.6908 112.945 61.1398 112.945 65.008C112.945 66.0352 113.02 67.0343 113.165 68.0082C112.062 69.1914 111.096 70.1318 110.276 70.8114C108.801 72.0331 107.277 72.6439 105.702 72.6439C104.226 72.6439 102.968 72.224 101.927 71.3841C100.885 70.5442 100.262 69.437 100.059 68.0622C103.515 66.2297 105.956 64.1432 107.379 61.801C108.802 59.4603 109.514 56.889 109.514 54.0891C109.514 51.5445 108.739 49.4065 107.189 47.6752C105.638 45.9453 103.592 45.0791 101.051 45.0791C98.3061 45.0791 95.3577 46.518 92.2065 49.3932C89.0542 52.2699 86.2593 56.8894 83.8195 63.2522C83.8195 60.4533 83.8961 57.7293 84.0486 55.0821C90.8082 47.7018 95.6879 41.2498 98.6877 35.7258C101.686 30.203 103.186 24.871 103.186 19.7293C103.186 16.5223 102.462 13.914 101.013 11.9028C99.5646 9.89267 97.6703 8.88672 95.3329 8.88672C90.9607 8.88672 87.2128 11.7764 84.0863 17.5535C80.9606 23.3313 78.5966 30.4706 76.9955 38.9713C75.3943 47.4728 74.5938 55.6432 74.5938 63.4816C74.5938 64.5063 74.6002 65.4726 74.6128 66.3878C72.9376 68.3269 71.5562 69.7939 70.4776 70.7736C69.1055 72.0216 67.9356 72.6443 66.9703 72.6443C66.3607 72.6443 65.8651 72.4149 65.4835 71.9571C65.1023 71.499 64.9116 70.8881 64.9116 70.1246C64.9116 67.8339 65.4954 63.7618 66.6653 57.9076C67.4277 53.887 67.809 51.341 67.809 50.272C67.809 48.491 66.5628 47.5995 64.0729 47.5995C62.903 47.5995 61.7856 47.7022 60.7181 47.905C60.4631 46.7863 60.1463 46.009 59.7654 45.5761C59.3838 45.1443 58.6336 44.9271 57.5158 44.9271C54.0085 44.9271 50.6918 46.0343 47.5661 48.2486C44.4401 50.4629 41.9358 53.3907 40.0556 57.0295C39.5402 58.0268 39.0982 59.0403 38.7242 60.0701C37.5402 60.9183 36.5098 61.344 35.6344 61.344C34.3634 61.344 33.7283 60.4536 33.7283 58.6715C33.7283 58.1633 33.9308 56.8901 34.3382 54.8534C34.7953 52.3088 35.0244 50.7049 35.0244 50.0433C35.0244 46.7348 33.3719 45.0802 30.0685 45.0802C28.3911 45.0802 26.5479 45.6658 24.5407 46.8363C22.532 48.008 20.4867 49.9669 18.4029 52.7158C16.318 55.4646 14.4385 59.0281 12.7607 63.4056C12.9632 61.1661 13.2178 59.2824 13.5232 57.7552C13.8282 56.2281 14.2346 54.4467 14.7431 52.41C15.5056 49.56 15.8868 47.7274 15.8868 46.9123C15.8868 46.1999 15.6832 45.7169 15.2772 45.4616C14.8697 45.2077 14.1587 45.0798 13.142 45.0798C11.261 45.0798 9.79902 45.4234 8.75819 46.1106C7.71593 46.7974 6.96642 47.8798 6.50895 49.3557C4.62798 55.3115 3.6875 61.599 3.6875 68.2157C3.6875 72.6954 4.08096 75.9535 4.86931 77.9892C5.65658 80.0256 7.01641 81.0431 8.94845 81.0431C10.5237 81.0431 11.6803 80.6231 12.4176 79.7832C13.1538 78.9437 13.8019 77.3283 14.3619 74.9346C15.1243 71.8303 16.1155 68.8776 17.3355 66.0773C18.5558 63.2784 19.7872 61.0259 21.0334 59.3198C22.2785 57.6151 23.2826 56.7615 24.0451 56.7615C24.604 56.7615 24.8838 57.17 24.8838 57.9836C24.8838 58.3402 24.8323 59.0274 24.7313 60.0452C24.5788 60.8088 24.5022 61.5723 24.5022 62.3359C24.5022 64.6777 25.2003 66.5355 26.5989 67.9099C27.9965 69.2843 30.0419 69.9718 32.7367 69.9718C34.3001 69.9718 35.8016 69.6891 37.2424 69.1294C37.3287 72.6007 38.2645 75.4273 40.0549 77.6074C41.9351 79.8981 44.4512 81.0435 47.6032 81.0435C51.6179 81.0435 54.9479 78.9055 57.5913 74.6296C58.3027 76.6148 59.3569 78.1801 60.7555 79.3254C62.1531 80.4708 63.691 81.0435 65.3684 81.0435C67.5529 81.0435 69.8155 80.1535 72.1539 78.371C73.2001 77.5736 74.2201 76.6897 75.2159 75.7288C75.4968 77.2736 75.9119 78.4729 76.4607 79.3254C77.1973 80.4708 78.3539 81.0435 79.9299 81.0435C81.5048 81.0435 82.6618 80.6235 83.399 79.7836C84.1352 78.944 84.7833 77.3287 85.3429 74.935C86.1558 71.6265 87.2743 68.4065 88.6978 65.2763C90.1202 62.1457 91.658 59.5878 93.3106 57.6022C94.9618 55.6169 96.4748 54.6243 97.8472 54.6243C98.4061 54.6243 98.8762 54.8534 99.2578 55.3115C99.639 55.7693 99.8296 56.4568 99.8296 57.3731C99.8296 58.9517 99.3459 60.288 98.381 61.3818C97.4146 62.4771 95.8138 63.5079 93.5778 64.4742C91.5444 65.3404 90.528 66.7649 90.528 68.7501C90.528 72.4664 91.7217 75.4446 94.1116 77.6841C96.5003 79.9248 99.6512 81.0435 103.566 81.0435C106.768 81.0435 109.538 80.2035 111.877 78.5241C113.205 77.5693 114.526 76.4268 115.839 75.11C116.83 76.5748 118.059 77.8189 119.539 78.8295C121.699 80.3065 124.304 81.0435 127.354 81.0435C130.963 81.0435 134.19 79.7587 137.037 77.1875C139.883 74.6177 141.79 71.1935 142.756 66.9176C144.821 66.8315 146.786 66.5942 148.657 66.216C148.638 66.8794 148.625 67.5457 148.625 68.216C148.625 72.6958 149.019 75.9539 149.807 77.9896C150.594 80.026 151.954 81.0435 153.886 81.0435C155.462 81.0435 156.618 80.6235 157.355 79.7836C158.092 78.944 158.74 77.3287 159.3 74.935C160.062 71.8307 161.065 68.878 162.311 66.0777C163.556 63.2788 164.776 61.0263 165.971 59.3202C167.165 57.6155 168.093 56.7619 168.754 56.7619C169.313 56.7619 169.593 57.1703 169.593 57.984C169.593 59.2057 169.262 61.42 168.601 64.6269C167.889 68.292 167.534 70.8377 167.534 72.2622C167.534 75.1136 168.194 77.2898 169.517 78.7906C170.838 80.2929 172.795 81.0431 175.387 81.0431C178.59 81.0431 181.449 80.1783 183.965 78.447C186.481 76.7171 188.832 74.5028 191.018 71.8044C191.073 71.7396 191.122 71.6679 191.175 71.5998C193.514 77.8956 198.086 81.0435 204.894 81.0435C208.249 81.0435 211.222 80.1787 213.815 78.4474C215.251 77.4889 216.623 76.376 217.934 75.1197C218.881 76.5547 220.058 77.7825 221.477 78.791C223.585 80.2932 226.139 81.0435 229.139 81.0435C232.189 81.0435 234.972 80.192 237.488 78.4855C240.004 76.7808 241.999 74.4135 243.474 71.3844C244.948 68.3565 245.685 64.9075 245.685 61.0378C245.683 58.2386 245.15 55.6162 244.082 53.1728ZM201.729 32.1371C202.567 28.7522 203.456 26.105 204.397 24.1957C205.337 22.2868 206.189 21.3327 206.951 21.3327C208.069 21.3327 208.629 22.8346 208.629 25.8377C208.629 28.4853 207.878 31.425 206.38 34.6565C204.88 37.8901 202.63 40.8031 199.632 43.3992C200.19 39.276 200.89 35.5227 201.729 32.1371ZM87.4386 30.9914C88.4802 26.5379 89.5602 23.0003 90.6791 20.3779C91.7965 17.757 92.8143 16.4456 93.7289 16.4456C94.3888 16.4456 94.8974 16.8785 95.2538 17.7436C95.6088 18.6099 95.7872 19.8568 95.7872 21.4855C95.7872 25.0493 94.7582 29.0195 92.6992 33.397C90.6406 37.7752 88.0353 41.8224 84.8844 45.5376C85.5447 40.2949 86.3964 35.4463 87.4386 30.9914ZM55.7597 66.077C55.3025 68.2664 54.5649 70.0226 53.5489 71.3455C52.5314 72.6699 51.464 73.3311 50.3466 73.3311C49.2281 73.3311 48.3512 72.949 47.7165 72.1854C47.0799 71.4219 46.7634 70.2517 46.7634 68.6731C46.7634 65.823 47.2971 63.1254 48.3646 60.5793C49.432 58.0347 50.8677 55.9861 52.6724 54.4327C54.4764 52.8804 56.4466 52.079 58.5818 52.0275L55.7597 66.077ZM132.194 70.9637C130.999 72.2881 129.589 72.949 127.962 72.949C126.488 72.949 125.205 72.2117 124.112 70.735C123.018 69.2591 122.473 67.1211 122.473 64.3208C122.473 60.7583 123.146 57.9962 124.493 56.0362C125.839 54.0772 127.53 53.0965 129.564 53.0965H129.945C129.792 53.9115 129.716 54.7262 129.716 55.5398C129.716 57.475 130.135 59.3076 130.974 61.0375C131.813 62.7688 133.02 64.1681 134.596 65.2371C134.189 67.7319 133.388 69.6405 132.194 70.9637ZM234.361 69.9711C233.166 71.8548 231.704 72.7963 229.977 72.7963C228.452 72.7963 227.181 72.1091 226.165 70.7347C225.147 69.3603 224.64 67.2223 224.64 64.3204C224.64 60.6553 225.236 57.8946 226.431 56.0358C227.625 54.1784 229.138 53.2488 230.968 53.2488C232.39 53.2488 233.61 53.9623 234.628 55.3871C235.644 56.8127 236.152 58.9258 236.152 61.7247C236.152 65.3397 235.554 68.0885 234.361 69.9711Z" fill="white"/>
  <path d="M281.426 29.2674C281.301 29.3924 281.172 29.5134 281.036 29.6294C277.785 32.4225 272.429 31.8538 270.865 31.6132C267.043 31.0254 263.91 26.7365 262.674 24.8013C261.438 26.7376 258.304 31.0254 254.484 31.6132C252.92 31.8534 247.563 32.4225 244.312 29.6283C242.648 28.1984 241.805 26.1346 241.805 23.4939C241.804 20.8527 242.644 18.7933 244.311 17.3584C247.561 14.5653 252.919 15.1325 254.484 15.3728C258.305 15.9616 261.439 20.2498 262.675 22.1847C263.911 20.2491 267.043 15.9602 270.865 15.3728C272.43 15.1333 277.788 14.5649 281.038 17.3584C282.701 18.7879 283.544 20.8524 283.544 23.4935C283.544 25.9207 282.831 27.8602 281.426 29.2674ZM263.379 23.4932C264.083 24.6778 267.309 29.7662 271.06 30.3429C272.487 30.5633 277.364 31.0913 280.201 28.6544C281.57 27.4774 282.262 25.7428 282.261 23.4935C282.261 21.2439 281.568 19.5079 280.202 18.333C277.367 15.8972 272.488 16.423 271.06 16.6434C267.307 17.2215 264.082 22.3086 263.379 23.4932ZM244.838 18.6208C243.676 19.7838 243.087 21.4215 243.087 23.4939C243.088 25.7428 243.78 27.4795 245.147 28.6533C247.983 31.0902 252.861 30.5633 254.289 30.3425C258.046 29.7644 261.266 24.6778 261.971 23.4932C261.266 22.3082 258.04 17.2197 254.289 16.6431C252.861 16.4234 247.982 15.8968 245.147 18.3337C245.039 18.4256 244.936 18.5225 244.838 18.6208Z" fill="white"/>
  <path d="M277.431 38.2718C275.566 40.1396 273.512 41.0019 271.327 40.8344C267.055 40.5088 263.669 36.3139 262.733 35.0357C260.445 31.9141 261.257 26.6621 261.751 24.4182C259.511 24.9128 254.266 25.726 251.149 23.435C249.873 22.4975 245.684 19.1065 245.358 14.8287C245.191 12.64 246.052 10.5831 247.917 8.71558C249.782 6.8481 251.836 5.98549 254.022 6.15333C258.293 6.47892 261.679 10.6738 262.615 11.9521C264.903 15.0736 264.091 20.3256 263.598 22.5684C265.838 22.075 271.082 21.2617 274.199 23.5528C275.476 24.4903 279.665 27.8813 279.99 32.1586C280.157 34.3478 279.296 36.4043 277.431 38.2718ZM263.172 23.9925C262.834 25.3291 261.522 31.211 263.767 34.2754C264.622 35.4416 267.699 39.2688 271.424 39.5536C273.22 39.6905 274.935 38.9543 276.524 37.3635C278.112 35.7726 278.848 34.0549 278.711 32.257C278.426 28.526 274.605 25.444 273.44 24.5882C270.381 22.3404 264.508 23.6529 263.172 23.9925ZM248.825 9.62428C247.236 11.2152 246.501 12.9328 246.638 14.7308C246.922 18.4618 250.744 21.5437 251.908 22.3995C254.968 24.6473 260.842 23.3338 262.177 22.9952C262.515 21.6575 263.826 15.7767 261.582 12.7124C260.727 11.5461 257.65 7.71899 253.924 7.43409C252.128 7.29687 250.413 8.03341 248.825 9.62428Z" fill="white"/>
  <path d="M276.387 21.5463C275.491 22.4442 274.657 23.0968 274.198 23.434C271.081 25.7243 265.837 24.9107 263.597 24.4172C264.09 26.6604 264.901 31.9127 262.614 35.0347C261.678 36.3143 258.293 40.5078 254.021 40.8341C251.834 41.0012 249.781 40.139 247.916 38.2711C246.05 36.4037 245.189 34.3467 245.356 32.1576C245.682 27.8806 249.871 24.4889 251.148 23.5517C254.265 21.2611 259.51 22.074 261.75 22.5674C261.257 20.3243 260.445 15.073 262.732 11.9507C263.67 10.671 267.055 6.47934 271.326 6.15122C273.511 5.9841 275.565 6.84635 277.431 8.71383C279.295 10.5817 280.156 12.6382 279.989 14.8277C279.781 17.5682 277.986 19.9457 276.387 21.5463ZM263.172 22.9938C264.506 23.3327 270.379 24.6466 273.44 22.3977C274.607 21.5413 278.427 18.4604 278.71 14.7305C278.848 12.9321 278.112 11.2138 276.523 9.6229C274.935 8.03203 273.219 7.29512 271.423 7.4327C267.698 7.71796 264.621 11.5466 263.767 12.7106C261.517 15.7811 262.832 21.6583 263.172 22.9938ZM249.839 26.3701C248.4 27.8107 246.815 29.9044 246.636 32.2556C246.499 34.0539 247.235 35.7723 248.823 37.3632C250.412 38.954 252.128 39.6909 253.923 39.5533C257.649 39.2688 260.725 35.4409 261.58 34.2754C263.83 31.205 262.516 25.327 262.176 23.9911C260.842 23.6522 254.968 22.339 251.907 24.5883C251.476 24.9049 250.682 25.5255 249.839 26.3701Z" fill="white"/>
  <path d="M268.441 42.2718C267.035 43.6804 265.098 44.3932 262.675 44.3929C260.037 44.3932 257.976 43.5483 256.548 41.8825C253.759 38.6262 254.327 33.2622 254.566 31.6958C255.154 27.8672 259.436 24.7294 261.368 23.4937C259.436 22.2558 255.153 19.1187 254.566 15.2904C254.326 13.7244 253.759 8.3597 256.548 5.10521C257.972 3.43691 260.036 2.59339 262.675 2.59375C265.313 2.59339 267.373 3.43799 268.801 5.10377C271.591 8.35898 271.023 13.7241 270.783 15.2904C270.195 19.1183 265.913 22.255 263.981 23.4926C265.913 24.7305 270.195 27.8686 270.783 31.6958C271.023 33.2633 271.59 38.628 268.8 41.8832C268.685 42.0179 268.564 42.1476 268.441 42.2718ZM258.474 27.43C257.201 28.705 256.086 30.2476 255.835 31.8907C255.615 33.3205 255.089 38.2055 257.522 41.0454C258.695 42.4134 260.428 43.1078 262.675 43.1078C264.921 43.1078 266.663 42.4058 267.826 41.0462C270.259 38.207 269.734 33.3202 269.514 31.8907C268.937 28.1276 263.857 24.9023 262.674 24.1982C262.009 24.5951 260.11 25.7912 258.474 27.43ZM262.674 22.7874C263.857 22.0822 268.937 18.8522 269.514 15.0949C269.734 13.665 270.26 8.77966 267.827 5.94008C266.654 4.57216 264.921 3.87811 262.675 3.87811C260.428 3.87847 258.705 4.5628 257.521 5.94153C255.089 8.78074 255.616 13.665 255.835 15.0949C256.41 18.8514 261.492 22.0822 262.674 22.7874Z" fill="white"/>
  <rect x="241.9" y="57.375" width="44.5605" height="23.375" fill="#69A465"/>
  <path d="M250.573 75.0273C251.101 75.0273 251.556 74.9668 251.938 74.8456C252.32 74.7245 252.632 74.5556 252.874 74.3388C253.122 74.1157 253.303 73.8543 253.418 73.5547C253.533 73.2487 253.59 72.914 253.59 72.5506C253.59 71.843 253.338 71.2852 252.836 70.8772C252.333 70.4628 251.578 70.2556 250.573 70.2556H247.612V75.0273H250.573ZM247.612 64.2599V68.936H250.057C250.579 68.936 251.031 68.8786 251.413 68.7639C251.801 68.6491 252.119 68.4898 252.368 68.2858C252.622 68.0818 252.81 67.8363 252.931 67.5494C253.052 67.2562 253.112 66.9374 253.112 66.5932C253.112 65.7836 252.871 65.1939 252.387 64.8241C251.903 64.448 251.152 64.2599 250.133 64.2599H247.612ZM250.133 62.7969C250.974 62.7969 251.696 62.8798 252.301 63.0455C252.912 63.2113 253.412 63.4471 253.8 63.7531C254.195 64.0591 254.484 64.4353 254.669 64.8815C254.854 65.3214 254.946 65.8186 254.946 66.3733C254.946 66.7111 254.892 67.0363 254.783 67.3486C254.682 67.6546 254.526 67.9415 254.316 68.2093C254.106 68.477 253.838 68.7193 253.514 68.936C253.195 69.1464 252.82 69.3185 252.387 69.4524C253.393 69.6436 254.147 70.0038 254.65 70.5329C255.159 71.0557 255.414 71.7442 255.414 72.5984C255.414 73.1786 255.305 73.7077 255.089 74.1858C254.879 74.6639 254.567 75.0751 254.153 75.4194C253.746 75.7636 253.243 76.0314 252.645 76.2226C252.046 76.4075 251.365 76.4999 250.601 76.4999H245.77V62.7969H250.133Z" fill="white"/>
  <path d="M264.039 70.5999C264.039 70.2046 263.982 69.8444 263.868 69.5193C263.759 69.1878 263.597 68.9041 263.381 68.6683C263.171 68.426 262.913 68.2411 262.607 68.1136C262.302 67.9798 261.955 67.9128 261.566 67.9128C260.752 67.9128 260.105 68.1519 259.628 68.63C259.157 69.1018 258.864 69.7584 258.749 70.5999H264.039ZM265.414 75.1421C265.204 75.3971 264.953 75.6202 264.66 75.8114C264.367 75.9963 264.052 76.1493 263.715 76.2704C263.384 76.3916 263.04 76.4808 262.684 76.5382C262.327 76.6019 261.974 76.6338 261.624 76.6338C260.955 76.6338 260.338 76.5223 259.771 76.2991C259.211 76.0696 258.724 75.7381 258.31 75.3046C257.903 74.8648 257.585 74.3229 257.355 73.679C257.126 73.0351 257.012 72.2956 257.012 71.4605C257.012 70.7848 257.113 70.1536 257.317 69.5671C257.527 68.9806 257.826 68.4738 258.215 68.0467C258.603 67.6132 259.077 67.2753 259.638 67.0331C260.198 66.7844 260.828 66.6601 261.528 66.6601C262.107 66.6601 262.642 66.7589 263.132 66.9566C263.629 67.1478 264.055 67.4283 264.412 67.7981C264.775 68.1614 265.058 68.6141 265.262 69.1559C265.465 69.6914 265.567 70.3034 265.567 70.9919C265.567 71.2597 265.539 71.4382 265.481 71.5274C265.424 71.6167 265.316 71.6613 265.157 71.6613H258.692C258.711 72.2733 258.794 72.8056 258.94 73.2583C259.093 73.7109 259.303 74.0902 259.571 74.3962C259.838 74.6958 260.156 74.9221 260.526 75.0751C260.895 75.2218 261.309 75.2951 261.767 75.2951C262.193 75.2951 262.559 75.2473 262.865 75.1516C263.177 75.0496 263.444 74.9413 263.667 74.8265C263.89 74.7118 264.074 74.6066 264.221 74.5109C264.374 74.4089 264.504 74.3579 264.612 74.3579C264.752 74.3579 264.861 74.4121 264.937 74.5205L265.414 75.1421Z" fill="white"/>
  <path d="M270.55 76.6529C269.786 76.6529 269.197 76.4394 268.784 76.0123C268.376 75.5851 268.172 74.9699 268.172 74.1667V68.2379H267.007C266.906 68.2379 266.82 68.2093 266.75 68.1519C266.68 68.0881 266.645 67.9925 266.645 67.865V67.1861L268.23 66.9853L268.621 63.9922C268.64 63.8966 268.682 63.8201 268.745 63.7627C268.815 63.6989 268.904 63.6671 269.013 63.6671H269.872V67.0044H272.67V68.2379H269.872V74.0519C269.872 74.4599 269.971 74.7628 270.168 74.9604C270.365 75.158 270.62 75.2568 270.932 75.2568C271.11 75.2568 271.263 75.2345 271.39 75.1899C271.524 75.1389 271.639 75.0847 271.734 75.0273C271.83 74.9699 271.909 74.9189 271.973 74.8743C272.043 74.8233 272.103 74.7978 272.154 74.7978C272.243 74.7978 272.323 74.852 272.393 74.9604L272.889 75.7732C272.597 76.0473 272.243 76.2641 271.83 76.4234C271.416 76.5764 270.989 76.6529 270.55 76.6529Z" fill="white"/>
  <path d="M279.667 72.1394C278.884 72.1649 278.216 72.2287 277.662 72.3307C277.114 72.4263 276.666 72.5538 276.315 72.7132C275.972 72.8726 275.72 73.0606 275.561 73.2774C275.408 73.4941 275.332 73.7364 275.332 74.0041C275.332 74.2591 275.373 74.4791 275.456 74.6639C275.539 74.8488 275.65 75.0018 275.79 75.1229C275.937 75.2377 276.105 75.3238 276.296 75.3811C276.494 75.4321 276.704 75.4576 276.927 75.4576C277.226 75.4576 277.5 75.4289 277.748 75.3716C277.996 75.3078 278.228 75.2186 278.445 75.1038C278.668 74.9891 278.878 74.852 279.075 74.6926C279.279 74.5333 279.476 74.3516 279.667 74.1476V72.1394ZM274.177 68.1806C274.711 67.6642 275.287 67.2785 275.905 67.0235C276.522 66.7685 277.207 66.641 277.958 66.641C278.499 66.641 278.98 66.7303 279.4 66.9088C279.82 67.0873 280.173 67.3359 280.46 67.6546C280.746 67.9734 280.963 68.3591 281.109 68.8117C281.255 69.2643 281.329 69.7616 281.329 70.3034V76.4999H280.574C280.409 76.4999 280.281 76.4744 280.192 76.4234C280.103 76.3661 280.033 76.2577 279.982 76.0983L279.791 75.1803C279.537 75.4162 279.288 75.6266 279.046 75.8114C278.805 75.9899 278.55 76.1429 278.283 76.2704C278.015 76.3916 277.729 76.484 277.423 76.5478C277.124 76.6179 276.79 76.6529 276.421 76.6529C276.045 76.6529 275.692 76.6019 275.361 76.4999C275.03 76.3916 274.74 76.2322 274.492 76.0218C274.25 75.8114 274.056 75.5469 273.909 75.2281C273.769 74.903 273.699 74.5205 273.699 74.0806C273.699 73.6981 273.804 73.3316 274.014 72.9809C274.224 72.6239 274.565 72.3084 275.036 72.0343C275.507 71.7601 276.121 71.537 276.879 71.3649C277.636 71.1864 278.566 71.0844 279.667 71.0589V70.3034C279.667 69.5512 279.505 68.9838 279.18 68.6013C278.855 68.2124 278.381 68.018 277.757 68.018C277.337 68.018 276.984 68.0722 276.697 68.1806C276.417 68.2826 276.172 68.4005 275.962 68.5344C275.758 68.6619 275.58 68.7798 275.427 68.8882C275.281 68.9902 275.135 69.0412 274.988 69.0412C274.874 69.0412 274.775 69.0125 274.692 68.9551C274.609 68.8914 274.539 68.8149 274.482 68.7256L274.177 68.1806Z" fill="white"/>
</svg>
