<svg xmlns="http://www.w3.org/2000/svg" xmlns:xlink="http://www.w3.org/1999/xlink" viewBox="0 0 672.87 200.34"><defs><style>.cls-1{fill:url(#linear-gradient);}</style><linearGradient id="linear-gradient" y1="100.17" x2="672.87" y2="100.17" gradientUnits="userSpaceOnUse"><stop offset="0.07" stop-color="#b9d350"/><stop offset="0.22" stop-color="#b3d158"/><stop offset="0.44" stop-color="#a1cd6f"/><stop offset="0.72" stop-color="#85c693"/><stop offset="0.9" stop-color="#6fc0af"/></linearGradient></defs><g id="Layer_2" data-name="Layer 2"><g id="Layer_1-2" data-name="Layer 1"><path class="cls-1" d="M668.42,123a38.62,38.62,0,0,0-13.35-16.43q-8.91-6.25-21.42-6.25a40.35,40.35,0,0,0-23.32,7.1,48.91,48.91,0,0,0-16.43,19.71q-6,12.61-6,28.73a58.55,58.55,0,0,0,.56,8,93.39,93.39,0,0,1-8.4,7.68A25.27,25.27,0,0,1,563.91,177q-11.24,0-16.43-8.9t-5.2-31q0-5.92.43-16.53h25.86q24,0,24-14.63,0-4-1.49-5.51T586.17,99H562.42Q590,74.63,590,41.76q0-11.86-5.08-19.71t-14-7.85q-12.07,0-22.57,11.45T530.41,56.39a206,206,0,0,0-11,42.61H507.3q-9.54,0-9.54,11.88c0,3.39.75,5.86,2.23,7.42s4.35,2.33,8.59,2.33h8.26q-.63,9.54-.63,18.87,0,6.84.55,12.89a8.63,8.63,0,0,0-3.52,2.58,169.9,169.9,0,0,1-15.58,16.86Q491.82,177,487.59,177q-6.15,0-6.15-8.48,0-5.94,4-24.38,4.66-21.63,4.66-29.89,0-13.78-13.78-13.78-7,0-15.37,4.87t-17.06,16.33q-8.7,11.44-15.69,29.68a150.08,150.08,0,0,1,2.12-15.69q1.27-6.36,3.39-14.84,3.18-11.86,3.18-15.26c0-2-.56-3.32-1.69-4s-3.11-1.06-5.94-1.06q-7.85,0-12.19,2.86t-6.25,9a166.28,166.28,0,0,0-5.64,23.93,111.19,111.19,0,0,1-16.83,2.57q-1.71-16.32-11.56-27.45t-26-11.13a42.64,42.64,0,0,0-24,7.1,48.3,48.3,0,0,0-17,19.71q-6.15,12.61-6.15,28.73a56.8,56.8,0,0,0,.61,8.33,87.82,87.82,0,0,1-8,7.78Q290.22,177,283.65,177a16.19,16.19,0,0,1-10.49-3.5,14,14,0,0,1-5.2-9.22q14.42-7.63,20.35-17.38a40.39,40.39,0,0,0,5.94-21.42,25.68,25.68,0,0,0-6.47-17.8q-6.46-7.22-17.06-7.21-11.45,0-24.59,12t-23.32,38.47q0-11.66.63-22.68,28.2-30.73,40.71-53.74t12.5-44.42q0-13.35-6-21.73T254.82,0q-18.24,0-31.27,24.06T203.83,83.53a367.36,367.36,0,0,0-6.68,68.05q0,4.26.06,8.07a148.33,148.33,0,0,1-11.5,12.18Q180,177,176,177a5.14,5.14,0,0,1-4.14-1.91,7.69,7.69,0,0,1-1.59-5.09q0-9.54,4.88-33.92,3.18-16.74,3.18-21.2,0-7.41-10.39-7.42a50.27,50.27,0,0,0-9.33.85c-.71-3.1-1.59-5.26-2.65-6.46s-3.14-1.81-6.25-1.81q-14.62,0-27.67,9.23a66.87,66.87,0,0,0-20.88,24.38,71.32,71.32,0,0,0-3.7,8.44q-4.94,3.52-8.59,3.53-5.31,0-5.3-7.42a78,78,0,0,1,1.69-10.6q1.92-10.59,1.91-13.35,0-13.78-13.78-13.78-7,0-15.37,4.87T40.92,121.69q-8.7,11.44-15.69,29.68a150.08,150.08,0,0,1,2.12-15.69q1.27-6.36,3.39-14.84,3.18-11.86,3.18-15.26c0-2-.57-3.32-1.7-4s-3.11-1.06-5.93-1.06q-7.84,0-12.19,2.86t-6.26,9A172.63,172.63,0,0,0,0,164.72q0,18.66,3.29,27.14t11.34,8.48q6.57,0,9.64-3.5t5.41-13.46A152.39,152.39,0,0,1,38,158.79,99.64,99.64,0,0,1,48.23,140q5.19-7.11,8.37-7.11c1.56,0,2.34,1.14,2.34,3.4,0,1-.15,2.89-.43,5.72a32.65,32.65,0,0,0-.63,6.36q0,9.75,5.83,15.48t17.06,5.72a34.24,34.24,0,0,0,12.53-2.34q.36,14.46,7.82,23.54,7.84,9.54,21,9.54,16.74,0,27.77-17.81a29.07,29.07,0,0,0,8.8,13,19.8,19.8,0,0,0,12.83,4.77q9.11,0,18.86-7.42a95.9,95.9,0,0,0,8.52-7.34,27.78,27.78,0,0,0,3.46,10q3.08,4.77,9.64,4.77t9.65-3.5q3.08-3.5,5.41-13.46a153,153,0,0,1,9.32-26.82,94.44,94.44,0,0,1,12.83-21.3q6.88-8.28,12.61-8.27a4.9,4.9,0,0,1,3.93,1.91q1.59,1.9,1.59,5.72a16.24,16.24,0,0,1-4,11.13q-4,4.56-13.36,8.59-8.48,3.6-8.48,11.87,0,15.48,10,24.8t26.28,9.33q13.37,0,23.11-7a89,89,0,0,0,11-9.47,38.41,38.41,0,0,0,10.29,10.32q9,6.15,21.73,6.15,15,0,26.92-10.71t15.9-28.51a105,105,0,0,0,16.41-2c0,1.84-.09,3.69-.09,5.55q0,18.66,3.29,27.14t11.34,8.48q6.57,0,9.65-3.5t5.4-13.46a145.22,145.22,0,0,1,8.38-24.59A113.69,113.69,0,0,1,451.23,140q5-7.11,7.74-7.11c1.55,0,2.33,1.14,2.33,3.4q0,5.09-2.75,18.44-3,15.27-3,21.2,0,11.88,5.51,18.13t16.32,6.25a41.07,41.07,0,0,0,23.85-7.21,93.4,93.4,0,0,0,19.61-18.44c.16-.18.3-.38.44-.57q9.75,26.22,38.15,26.22a43.65,43.65,0,0,0,24.8-7.21,83.5,83.5,0,0,0,11.45-9.24,38.37,38.37,0,0,0,9.85,10.2q8.81,6.25,21.31,6.25a40.45,40.45,0,0,0,23.21-7.1,49.35,49.35,0,0,0,16.65-19.72q6.13-12.6,6.14-28.72A53.86,53.86,0,0,0,668.42,123ZM550.66,64.55q3.5-14.08,7.42-22t7.1-7.95q4.67,0,4.66,12.5,0,11-6.25,24.49a72.25,72.25,0,0,1-18.76,24.27A295.8,295.8,0,0,1,550.66,64.55ZM232.88,61.37q4.34-18.54,9-29.46T250.37,21c1.83,0,3.25,1.2,4.24,3.6s1.48,5.87,1.48,10.39q0,14.85-8.59,33.07a151,151,0,0,1-21.73,33.71A394,394,0,0,1,232.88,61.37Zm-88.09,97.42q-1.9,9.12-6.14,14.63t-8.91,5.51a9,9,0,0,1-7.31-3.18q-2.66-3.18-2.65-9.75a57.44,57.44,0,0,1,4.45-22.48,45,45,0,0,1,12-17.06,25.66,25.66,0,0,1,16.43-6.68Zm212.53,13.57a15.4,15.4,0,0,1-11.77,5.51q-6.15,0-10.7-6.15t-4.56-17.81q0-14.83,5.62-23T350,122.75h1.07a36.19,36.19,0,0,0-.64,6.78,34.42,34.42,0,0,0,3.5,15.27A29.23,29.23,0,0,0,364,156.46Q362.29,166.84,357.32,172.36Zm284.07-2.76q-5,7.85-12.19,7.84-6.36,0-10.6-5.72t-4.24-17.81q0-15.25,5-23T632,123.17q5.92,0,10.17,5.94t4.24,17.59Q646.37,161.76,641.39,169.6Z"/></g></g></svg>