<svg xmlns="http://www.w3.org/2000/svg" xmlns:xlink="http://www.w3.org/1999/xlink" viewBox="0 0 398.63 111.58"><defs><style>.cls-1{isolation:isolate;}.cls-2{fill:url(#linear-gradient);}.cls-3{mix-blend-mode:multiply;}.cls-4{fill:url(#linear-gradient-2);}.cls-5{fill:url(#linear-gradient-3);}.cls-6{fill:url(#linear-gradient-4);}</style><linearGradient id="linear-gradient" y1="60.27" x2="344.7" y2="60.27" gradientUnits="userSpaceOnUse"><stop offset="0.07" stop-color="#b9d350"/><stop offset="0.22" stop-color="#b3d158"/><stop offset="0.44" stop-color="#a1cd6f"/><stop offset="0.72" stop-color="#85c693"/><stop offset="0.9" stop-color="#6fc0af"/></linearGradient><linearGradient id="linear-gradient-2" x1="637.79" y1="-237.1" x2="687.18" y2="-237.1" gradientTransform="translate(68.11 665.82) rotate(-45)" xlink:href="#linear-gradient"/><linearGradient id="linear-gradient-3" x1="650.63" y1="-237.1" x2="674.34" y2="-237.1" gradientTransform="translate(68.11 665.82) rotate(-45)" xlink:href="#linear-gradient"/><linearGradient id="linear-gradient-4" x1="632.76" y1="-237.1" x2="692.21" y2="-237.1" gradientTransform="translate(68.11 665.82) rotate(-45)" xlink:href="#linear-gradient"/></defs><g class="cls-1"><g id="Layer_2" data-name="Layer 2"><g id="Layer_1-2" data-name="Layer 1"><path class="cls-2" d="M342.42,71.94a19.81,19.81,0,0,0-6.84-8.42,18.64,18.64,0,0,0-11-3.2A20.66,20.66,0,0,0,312.66,64a24.88,24.88,0,0,0-8.41,10.1,33.55,33.55,0,0,0-3.1,14.71,29.24,29.24,0,0,0,.29,4.11,46,46,0,0,1-4.31,3.93,13,13,0,0,1-8.25,2.82q-5.76,0-8.42-4.56T277.8,79.22q0-3,.22-8.47h13.25q12.27,0,12.27-7.5a4,4,0,0,0-.76-2.82,3.43,3.43,0,0,0-2.5-.76H288.12q14.11-12.49,14.12-29.32a18.16,18.16,0,0,0-2.61-10.1,8.13,8.13,0,0,0-7.17-4q-6.18,0-11.56,5.86t-9.18,15.75a105.2,105.2,0,0,0-5.65,21.83h-6.19c-3.26,0-4.88,2-4.88,6.08a5.35,5.35,0,0,0,1.14,3.8c.76.8,2.22,1.2,4.39,1.2h4.24c-.22,3.25-.33,6.48-.33,9.66,0,2.34.1,4.53.29,6.61a4.32,4.32,0,0,0-1.81,1.32,86.93,86.93,0,0,1-8,8.63c-2,1.78-3.71,2.66-5.16,2.66-2.1,0-3.15-1.44-3.15-4.34q0-3,2.07-12.49,2.38-11.07,2.39-15.31,0-7.06-7.06-7.06a15.87,15.87,0,0,0-7.88,2.5,31.43,31.43,0,0,0-8.74,8.36,61.81,61.81,0,0,0-8,15.2,79.11,79.11,0,0,1,1.09-8c.43-2.18,1-4.71,1.74-7.61A42,42,0,0,0,223.83,63,2.24,2.24,0,0,0,223,61a6.14,6.14,0,0,0-3-.54,11.4,11.4,0,0,0-6.25,1.46,8.2,8.2,0,0,0-3.2,4.62,85.08,85.08,0,0,0-2.89,12.26A56.65,56.65,0,0,1,199,80.09,24.41,24.41,0,0,0,193,66a16.92,16.92,0,0,0-13.3-5.7A21.89,21.89,0,0,0,167.46,64a24.72,24.72,0,0,0-8.69,10.1,33.15,33.15,0,0,0-3.14,14.71,28.42,28.42,0,0,0,.31,4.27,46.86,46.86,0,0,1-4.12,4,10.11,10.11,0,0,1-6.51,2.6,8.29,8.29,0,0,1-5.38-1.79,7.2,7.2,0,0,1-2.66-4.72q7.38-3.91,10.43-8.91a20.74,20.74,0,0,0,3-11,13.19,13.19,0,0,0-3.31-9.12,11.2,11.2,0,0,0-8.75-3.69q-5.87,0-12.59,6.13t-12,19.72c0-4,.11-7.86.33-11.62q14.43-15.75,20.85-27.54t6.4-22.75q0-6.84-3.09-11.13A9.54,9.54,0,0,0,130.54,9q-9.34,0-16,12.33t-10.1,30.46A188.13,188.13,0,0,0,101,86.6c0,1.46,0,2.83,0,4.14A77.74,77.74,0,0,1,95.14,97c-2,1.78-3.63,2.66-5,2.66a2.64,2.64,0,0,1-2.12-1,4,4,0,0,1-.81-2.61q0-4.89,2.5-17.38a81.69,81.69,0,0,0,1.62-10.86Q91.33,64,86,64a25.51,25.51,0,0,0-4.78.44,7.91,7.91,0,0,0-1.35-3.32c-.55-.61-1.62-.92-3.21-.92A24.13,24.13,0,0,0,62.5,64.94,34.37,34.37,0,0,0,51.8,77.42a37.37,37.37,0,0,0-1.89,4.33,8,8,0,0,1-4.4,1.81c-1.82,0-2.72-1.26-2.72-3.8a40.16,40.16,0,0,1,.87-5.43,55.13,55.13,0,0,0,1-6.84q0-7.06-7.06-7.06a15.87,15.87,0,0,0-7.88,2.5A31.43,31.43,0,0,0,21,71.29a61.81,61.81,0,0,0-8,15.2,79.11,79.11,0,0,1,1.09-8c.43-2.18,1-4.71,1.74-7.61A42,42,0,0,0,17.38,63,2.24,2.24,0,0,0,16.51,61a6.17,6.17,0,0,0-3-.54,11.4,11.4,0,0,0-6.25,1.46A8.2,8.2,0,0,0,4,66.51,88.4,88.4,0,0,0,0,93.34q0,9.55,1.68,13.9c1.13,2.89,3.06,4.34,5.81,4.34a6.29,6.29,0,0,0,4.95-1.79c1-1.2,2-3.49,2.76-6.9a78.68,78.68,0,0,1,4.24-12.6,51,51,0,0,1,5.27-9.61C26.48,78.26,27.91,77,29,77c.79,0,1.19.59,1.19,1.74,0,.51-.07,1.49-.22,2.93A17.23,17.23,0,0,0,29.65,85a10.57,10.57,0,0,0,3,7.93c2,2,4.9,2.93,8.74,2.93a17.74,17.74,0,0,0,6.42-1.19q.18,7.39,4,12a13.2,13.2,0,0,0,10.75,4.89q8.58,0,14.23-9.12a14.9,14.9,0,0,0,4.51,6.68,10.13,10.13,0,0,0,6.57,2.44q4.67,0,9.66-3.8a47.36,47.36,0,0,0,4.37-3.76,14.35,14.35,0,0,0,1.77,5.12,5.45,5.45,0,0,0,4.94,2.44q3.36,0,4.94-1.79c1-1.2,2-3.49,2.77-6.9a78.5,78.5,0,0,1,4.78-13.74,48.44,48.44,0,0,1,6.57-10.91C130,75.42,132.17,74,134.12,74a2.52,2.52,0,0,1,2,1,4.51,4.51,0,0,1,.82,2.93,8.31,8.31,0,0,1-2.07,5.71A19.29,19.29,0,0,1,128,88c-2.9,1.24-4.34,3.26-4.34,6.09q0,7.92,5.1,12.7t13.47,4.78A19.79,19.79,0,0,0,154.11,108a46.29,46.29,0,0,0,5.64-4.86,19.79,19.79,0,0,0,5.27,5.29,19.28,19.28,0,0,0,11.13,3.15,20,20,0,0,0,13.79-5.48,27.13,27.13,0,0,0,8.15-14.61,53.32,53.32,0,0,0,8.41-1c0,.94-.05,1.89-.05,2.85q0,9.55,1.68,13.9c1.13,2.89,3.06,4.34,5.81,4.34q3.38,0,4.95-1.79c1-1.2,2-3.49,2.77-6.9A74.14,74.14,0,0,1,226,90.29a58.41,58.41,0,0,1,5.21-9.61c1.7-2.42,3-3.64,4-3.64s1.2.59,1.2,1.74a55.51,55.51,0,0,1-1.42,9.45,68.28,68.28,0,0,0-1.52,10.86q0,6.09,2.83,9.29t8.36,3.2a21.1,21.1,0,0,0,12.22-3.69,48,48,0,0,0,10-9.45c.08-.09.15-.19.23-.29q5,13.42,19.54,13.43a22.41,22.41,0,0,0,12.71-3.69,43.83,43.83,0,0,0,5.86-4.73,19.73,19.73,0,0,0,5.05,5.22,18.37,18.37,0,0,0,10.91,3.2,20.75,20.75,0,0,0,11.9-3.64,25.19,25.19,0,0,0,8.52-10.1,33.12,33.12,0,0,0,3.15-14.71A27.65,27.65,0,0,0,342.42,71.94ZM282.09,42a58.21,58.21,0,0,1,3.8-11.29c1.34-2.72,2.56-4.08,3.64-4.08q2.39,0,2.39,6.41a30.18,30.18,0,0,1-3.2,12.54A37.13,37.13,0,0,1,279.11,58,151,151,0,0,1,282.09,42ZM119.3,40.39a94.82,94.82,0,0,1,4.61-15.09c1.6-3.73,3-5.6,4.35-5.6.94,0,1.66.62,2.17,1.85a14.45,14.45,0,0,1,.76,5.32q0,7.61-4.4,16.94a77.41,77.41,0,0,1-11.13,17.27A199.83,199.83,0,0,1,119.3,40.39ZM74.17,90.29A18.37,18.37,0,0,1,71,97.79q-2.18,2.82-4.57,2.82A4.59,4.59,0,0,1,62.72,99a7.64,7.64,0,0,1-1.36-5,29.4,29.4,0,0,1,2.28-11.51,23.09,23.09,0,0,1,6.14-8.75,13.12,13.12,0,0,1,8.41-3.42Zm108.88,7a7.88,7.88,0,0,1-6,2.82,6.72,6.72,0,0,1-5.48-3.15q-2.34-3.15-2.34-9.12,0-7.6,2.88-11.79c1.92-2.78,4.32-4.18,7.22-4.18h.54a19.51,19.51,0,0,0-.32,3.48,17.75,17.75,0,0,0,1.79,7.82,14.92,14.92,0,0,0,5.16,6A15.73,15.73,0,0,1,183.05,97.25Zm145.52-1.42q-2.55,4-6.24,4a6.55,6.55,0,0,1-5.43-2.93q-2.17-2.94-2.17-9.12c0-5.22.85-9.14,2.55-11.79s3.85-4,6.46-4a6.29,6.29,0,0,1,5.21,3q2.18,3,2.17,9Q331.12,91.83,328.57,95.83Z"/><g class="cls-3"><path class="cls-4" d="M395.61,37.94c-.18.18-.36.35-.55.51-4.63,4-12.26,3.17-14.49,2.83-5.45-.84-9.91-6.94-11.67-9.69-1.76,2.75-6.22,8.85-11.66,9.69-2.23.34-9.86,1.15-14.49-2.83-2.37-2-3.57-5-3.58-8.72s1.2-6.69,3.57-8.73c4.63-4,12.27-3.17,14.5-2.82,5.44.83,9.9,6.93,11.66,9.68,1.76-2.75,6.22-8.85,11.67-9.68h0c2.23-.34,9.86-1.15,14.49,2.82,2.37,2,3.57,5,3.57,8.73A11.14,11.14,0,0,1,395.61,37.94Zm-25.7-8.21c1,1.68,5.59,8.92,10.94,9.74,2,.31,9,1.06,13-2.4,1.95-1.68,2.93-4.14,2.93-7.34s-1-5.67-2.93-7.34c-4-3.47-11-2.72-13-2.41C375.5,20.81,370.91,28,369.91,29.73ZM343.5,22.8a9.37,9.37,0,0,0-2.5,6.93c0,3.2,1,5.67,2.94,7.34,4,3.46,11,2.71,13,2.4,5.35-.82,9.94-8.06,10.94-9.74C366.9,28,362.3,20.8,357,20c-2-.31-9-1.06-13,2.41A5.76,5.76,0,0,0,343.5,22.8Z"/></g><path class="cls-5" d="M389.92,50.75c-2.65,2.65-5.58,3.88-8.69,3.64-6.09-.46-10.91-6.43-12.24-8.25-3.26-4.44-2.11-11.91-1.4-15.1-3.19.7-10.66,1.86-15.1-1.4-1.82-1.33-7.79-6.15-8.25-12.24-.24-3.11,1-6,3.64-8.69s5.58-3.89,8.7-3.65c6.08.46,10.9,6.43,12.24,8.25,3.26,4.44,2.1,11.91,1.4,15.1,3.19-.7,10.66-1.86,15.1,1.4,1.82,1.33,7.78,6.16,8.25,12.24C393.8,45.16,392.58,48.09,389.92,50.75ZM369.61,30.43c-.48,1.91-2.35,10.27.85,14.63,1.22,1.66,5.6,7.1,10.91,7.51,2.55.19,5-.85,7.26-3.12s3.31-4.7,3.11-7.26c-.4-5.31-5.84-9.69-7.5-10.91C379.88,28.09,371.51,30,369.61,30.43ZM349.17,10c-2.26,2.26-3.31,4.7-3.11,7.26.4,5.31,5.85,9.69,7.51,10.91,4.36,3.2,12.72,1.33,14.62.85.49-1.91,2.35-10.27-.84-14.63-1.22-1.66-5.61-7.1-10.91-7.51C353.88,6.69,351.44,7.74,349.17,10Z"/><g class="cls-3"><path class="cls-6" d="M388.44,27a28.93,28.93,0,0,1-3.12,2.68c-4.44,3.26-11.91,2.1-15.1,1.4.7,3.19,1.86,10.66-1.4,15.1-1.34,1.82-6.16,7.79-12.24,8.25-3.12.24-6-1-8.7-3.64s-3.88-5.59-3.64-8.7c.46-6.08,6.43-10.91,8.25-12.24,4.44-3.26,11.91-2.1,15.1-1.4-.7-3.19-1.86-10.66,1.4-15.1h0c1.33-1.82,6.15-7.78,12.24-8.25,3.11-.24,6,1,8.69,3.65s3.89,5.58,3.65,8.69C393.27,21.3,390.71,24.68,388.44,27ZM369.61,29c1.9.48,10.27,2.35,14.63-.85,1.66-1.22,7.1-5.6,7.51-10.91.19-2.56-.86-5-3.12-7.26s-4.71-3.31-7.26-3.12c-5.31.41-9.69,5.85-10.91,7.51h0C367.26,18.76,369.13,27.12,369.61,29Zm-19,4.8c-2.05,2-4.31,5-4.56,8.37-.2,2.56.85,5,3.11,7.26s4.71,3.31,7.27,3.12c5.31-.41,9.69-5.85,10.9-7.51,3.21-4.37,1.34-12.73.85-14.63-1.9-.48-10.26-2.35-14.62.85A25.78,25.78,0,0,0,350.62,33.82Z"/></g><g class="cls-3"><path class="cls-4" d="M377.12,56.44a11.18,11.18,0,0,1-8.22,3c-3.75,0-6.69-1.2-8.72-3.57-4-4.63-3.17-12.26-2.83-14.49.84-5.44,6.94-9.91,9.69-11.66-2.75-1.76-8.85-6.23-9.69-11.67-.34-2.23-1.15-9.86,2.83-14.49,2-2.37,5-3.57,8.72-3.57h0c3.76,0,6.7,1.2,8.73,3.57,4,4.63,3.16,12.26,2.82,14.49-.84,5.44-6.93,9.9-9.69,11.67,2.76,1.76,8.85,6.22,9.69,11.66.34,2.23,1.15,9.86-2.82,14.49Zm-14.2-21.11c-1.81,1.81-3.4,4-3.76,6.34-.31,2-1.06,9,2.4,13,1.67,2,4.14,2.94,7.34,2.94s5.68-1,7.34-2.94c3.47-4,2.72-11,2.4-13-.82-5.35-8.05-9.94-9.74-10.94A32.33,32.33,0,0,0,362.92,35.33Zm6-6.61c1.69-1,8.92-5.59,9.74-10.94.32-2,1.07-9-2.4-13-1.67-1.95-4.14-2.93-7.34-2.93h0c-3.2,0-5.65,1-7.34,2.93-3.46,4-2.71,11-2.4,13C360,23.12,367.22,27.72,368.9,28.72Z"/></g></g></g></g></svg>