<svg xmlns="http://www.w3.org/2000/svg" xmlns:xlink="http://www.w3.org/1999/xlink" viewBox="0 0 59.45 59.45"><defs><style>.cls-1{isolation:isolate;}.cls-2{mix-blend-mode:multiply;}.cls-3{fill:url(#linear-gradient);}.cls-4{fill:url(#linear-gradient-2);}.cls-5{fill:url(#linear-gradient-3);}</style><linearGradient id="linear-gradient" x1="468.32" y1="-535.43" x2="517.71" y2="-535.43" gradientTransform="translate(59.72 756.95) rotate(-45)" gradientUnits="userSpaceOnUse"><stop offset="0.07" stop-color="#b9d350"/><stop offset="0.22" stop-color="#b3d158"/><stop offset="0.44" stop-color="#a1cd6f"/><stop offset="0.72" stop-color="#85c693"/><stop offset="0.9" stop-color="#6fc0af"/></linearGradient><linearGradient id="linear-gradient-2" x1="481.16" y1="-535.43" x2="504.87" y2="-535.43" xlink:href="#linear-gradient"/><linearGradient id="linear-gradient-3" x1="463.29" y1="-535.43" x2="522.74" y2="-535.43" xlink:href="#linear-gradient"/></defs><g class="cls-1"><g id="Layer_2" data-name="Layer 2"><g id="Layer_1-2" data-name="Layer 1"><g class="cls-2"><path class="cls-3" d="M56.44,37.94c-.18.18-.37.35-.56.51-4.63,4-12.26,3.17-14.49,2.83-5.44-.84-9.9-6.94-11.66-9.69C28,34.34,23.5,40.44,18.06,41.28c-2.23.34-9.86,1.15-14.49-2.83-2.37-2-3.57-5-3.57-8.72S1.2,23,3.57,21c4.63-4,12.26-3.17,14.49-2.82C23.5,19,28,25.11,29.73,27.86,31.49,25.11,36,19,41.39,18.18h0C43.62,17.84,51.25,17,55.88,21c2.37,2,3.57,5,3.57,8.73A11.14,11.14,0,0,1,56.44,37.94ZM30.73,29.73c1,1.68,5.6,8.92,10.94,9.74,2,.31,9,1.06,13-2.4,2-1.68,2.94-4.14,2.94-7.34s-1-5.67-2.94-7.34c-4-3.47-11-2.72-13-2.41C36.33,20.81,31.73,28,30.73,29.73ZM4.32,22.8a9.41,9.41,0,0,0-2.49,6.93c0,3.2,1,5.67,2.93,7.34,4,3.46,11,2.71,13,2.4,5.35-.82,9.94-8.06,10.94-9.74C27.72,28,23.13,20.8,17.78,20c-2-.31-9-1.06-13,2.41Z"/></g><path class="cls-4" d="M50.75,50.75c-2.66,2.65-5.59,3.88-8.7,3.64C36,53.93,31.14,48,29.81,46.14c-3.26-4.44-2.1-11.91-1.4-15.1-3.19.7-10.66,1.86-15.1-1.4-1.82-1.33-7.78-6.15-8.25-12.24-.24-3.11,1-6,3.65-8.69s5.58-3.89,8.69-3.65c6.09.46,10.91,6.43,12.24,8.25,3.26,4.44,2.11,11.91,1.4,15.1,3.19-.7,10.66-1.86,15.1,1.4C48,31.14,53.93,36,54.39,42.05,54.63,45.16,53.4,48.09,50.75,50.75ZM30.44,30.43c-.49,1.91-2.35,10.27.84,14.63,1.22,1.66,5.6,7.1,10.91,7.51,2.56.19,5-.85,7.26-3.12s3.31-4.7,3.12-7.26c-.41-5.31-5.85-9.69-7.51-10.91C40.7,28.09,32.34,30,30.44,30.43ZM10,10c-2.26,2.26-3.31,4.7-3.12,7.26.41,5.31,5.85,9.69,7.51,10.91C18.75,31.37,27.12,29.5,29,29c.48-1.91,2.35-10.27-.85-14.63-1.22-1.66-5.6-7.1-10.91-7.51C14.71,6.69,12.26,7.74,10,10Z"/><g class="cls-2"><path class="cls-5" d="M49.26,27a28,28,0,0,1-3.12,2.68C41.7,32.9,34.23,31.74,31,31c.71,3.19,1.86,10.66-1.4,15.1C28.31,48,23.49,53.93,17.4,54.39c-3.11.24-6-1-8.69-3.64s-3.89-5.59-3.65-8.7c.47-6.08,6.43-10.91,8.25-12.24,4.44-3.26,11.91-2.1,15.1-1.4-.7-3.19-1.86-10.66,1.4-15.1h0C31.15,11.49,36,5.53,42.05,5.06c3.12-.24,6,1,8.7,3.65s3.88,5.58,3.64,8.69C54.1,21.3,51.54,24.68,49.26,27ZM30.44,29c1.9.48,10.26,2.35,14.62-.85,1.66-1.22,7.11-5.6,7.51-10.91.2-2.56-.85-5-3.11-7.26s-4.71-3.31-7.27-3.12c-5.31.41-9.69,5.85-10.9,7.51h0C28.08,18.76,30,27.12,30.44,29Zm-19,4.8c-2,2-4.31,5-4.57,8.37-.19,2.56.86,5,3.12,7.26s4.71,3.31,7.26,3.12c5.31-.41,9.69-5.85,10.91-7.51,3.2-4.37,1.33-12.73.85-14.63-1.9-.48-10.27-2.35-14.63.85A26.81,26.81,0,0,0,11.45,33.82Z"/></g><g class="cls-2"><path class="cls-3" d="M37.94,56.44a11.14,11.14,0,0,1-8.21,3c-3.76,0-6.7-1.2-8.73-3.57-4-4.63-3.16-12.26-2.82-14.49C19,36,25.11,31.48,27.87,29.73,25.11,28,19,23.5,18.18,18.06,17.84,15.83,17,8.2,21,3.57,23,1.2,26,0,29.73,0h0c3.76,0,6.69,1.2,8.72,3.57,4,4.63,3.17,12.26,2.83,14.49-.84,5.44-6.94,9.9-9.69,11.67,2.75,1.76,8.85,6.22,9.69,11.66.34,2.23,1.15,9.86-2.83,14.49C38.29,56.07,38.12,56.26,37.94,56.44ZM23.74,35.33c-1.81,1.81-3.4,4-3.76,6.34-.31,2-1.06,9,2.41,13,1.67,2,4.14,2.94,7.34,2.94s5.68-1,7.34-2.94c3.46-4,2.71-11,2.4-13-.82-5.35-8.06-9.94-9.74-10.94A32.3,32.3,0,0,0,23.74,35.33Zm6-6.61c1.68-1,8.92-5.59,9.74-10.94.31-2,1.06-9-2.4-13-1.67-1.95-4.14-2.93-7.34-2.93h0c-3.2,0-5.66,1-7.34,2.93-3.47,4-2.72,11-2.41,13C20.81,23.12,28,27.72,29.73,28.72Z"/></g></g></g></g></svg>